<?xml version="1.0" encoding="UTF-8" standalone="no"?>
<svg
   xmlns:dc="http://purl.org/dc/elements/1.1/"
   xmlns:cc="http://creativecommons.org/ns#"
   xmlns:rdf="http://www.w3.org/1999/02/22-rdf-syntax-ns#"
   xmlns:svg="http://www.w3.org/2000/svg"
   xmlns="http://www.w3.org/2000/svg"
   xmlns:sodipodi="http://sodipodi.sourceforge.net/DTD/sodipodi-0.dtd"
   xmlns:inkscape="http://www.inkscape.org/namespaces/inkscape"
   height="22"
   id="Layer_1"
   version="1.1"
   viewBox="0 0 22 22"
   width="22"
   xml:space="preserve"
   sodipodi:docname="add.svg"
   inkscape:version="0.92.3 (2405546, 2018-03-11)"><metadata
     id="metadata3729"><rdf:RDF><cc:Work
         rdf:about=""><dc:format>image/svg+xml</dc:format><dc:type
           rdf:resource="http://purl.org/dc/dcmitype/StillImage" /><dc:title></dc:title></cc:Work></rdf:RDF></metadata><defs
     id="defs3727" /><sodipodi:namedview
     pagecolor="#ffffff"
     bordercolor="#666666"
     borderopacity="1"
     objecttolerance="10"
     gridtolerance="10"
     guidetolerance="10"
     inkscape:pageopacity="0"
     inkscape:pageshadow="2"
     inkscape:window-width="1920"
     inkscape:window-height="1001"
     id="namedview3725"
     showgrid="false"
     inkscape:zoom="8"
     inkscape:cx="-20.476506"
     inkscape:cy="0.093145752"
     inkscape:window-x="-9"
     inkscape:window-y="-9"
     inkscape:window-maximized="1"
     inkscape:current-layer="Layer_1" /><path
     d="M 20.428571,9.428571 H 12.571429 V 1.5714286 C 12.571429,0.704 11.867429,0 11,0 10.132571,0 9.428571,0.704 9.428571,1.5714286 V 9.428571 H 1.5714286 C 0.704,9.428571 0,10.132571 0,11 c 0,0.867429 0.704,1.571429 1.5714286,1.571429 H 9.428571 v 7.857142 C 9.428571,21.296 10.132571,22 11,22 c 0.867429,0 1.571429,-0.704 1.571429,-1.571429 v -7.857142 h 7.857142 C 21.296,12.571429 22,11.867429 22,11 22,10.132571 21.296,9.428571 20.428571,9.428571 Z"
     id="path3722"
     inkscape:connector-curvature="0"
     style="stroke-width:0.78571427;fill:#20b2aa;fill-opacity:1" /></svg>