<?xml version="1.0" encoding="UTF-8" standalone="no"?>
<svg
   xmlns:dc="http://purl.org/dc/elements/1.1/"
   xmlns:cc="http://creativecommons.org/ns#"
   xmlns:rdf="http://www.w3.org/1999/02/22-rdf-syntax-ns#"
   xmlns:svg="http://www.w3.org/2000/svg"
   xmlns="http://www.w3.org/2000/svg"
   xmlns:sodipodi="http://sodipodi.sourceforge.net/DTD/sodipodi-0.dtd"
   xmlns:inkscape="http://www.inkscape.org/namespaces/inkscape"
   enable-background="new 0 0 40 40"
   id="Слой_1"
   version="1.1"
   viewBox="0 0 19.305 22"
   xml:space="preserve"
   sodipodi:docname="delete.svg"
   width="19.305"
   height="22"
   inkscape:version="0.92.3 (2405546, 2018-03-11)"><metadata
     id="metadata1444"><rdf:RDF><cc:Work
         rdf:about=""><dc:format>image/svg+xml</dc:format><dc:type
           rdf:resource="http://purl.org/dc/dcmitype/StillImage" /><dc:title></dc:title></cc:Work></rdf:RDF></metadata><defs
     id="defs1442" /><sodipodi:namedview
     pagecolor="#ffffff"
     bordercolor="#666666"
     borderopacity="1"
     objecttolerance="10"
     gridtolerance="10"
     guidetolerance="10"
     inkscape:pageopacity="0"
     inkscape:pageshadow="2"
     inkscape:window-width="1920"
     inkscape:window-height="1001"
     id="namedview1440"
     showgrid="false"
     inkscape:zoom="5.9"
     inkscape:cx="-10.281356"
     inkscape:cy="20"
     inkscape:window-x="-9"
     inkscape:window-y="-9"
     inkscape:window-maximized="1"
     inkscape:current-layer="Слой_1" /><g
     id="g1421"
     style="fill:#20b2aa;fill-opacity:1"
     transform="matrix(0.55,0,0,0.55,-1.32,0)"><path
       d="M 28,40 H 11.8 C 8.5,40 5.9,37.3 5.9,34.1 V 16 c 0,-0.6 0.4,-1 1,-1 0.6,0 1,0.4 1,1 v 18.1 c 0,2.2 1.8,3.9 3.9,3.9 H 28 c 2.2,0 3.9,-1.8 3.9,-3.9 V 16 c 0,-0.6 0.4,-1 1,-1 0.6,0 1,0.4 1,1 v 18.1 c 0,3.2 -2.7,5.9 -5.9,5.9 z"
       id="path1419"
       style="fill:#20b2aa;fill-opacity:1"
       inkscape:connector-curvature="0" /></g><g
     id="g1425"
     style="fill:#20b2aa;fill-opacity:1"
     transform="matrix(0.55,0,0,0.55,-1.32,0)"><path
       d="M 33.3,4.9 H 25.7 C 25.2,2.1 22.8,0 19.9,0 17,0 14.6,2.1 14.1,4.9 H 6.5 C 4.2,4.9 2.4,6.7 2.4,9 c 0,2.3 1.8,4 4.1,4 h 26.9 c 2.3,0 4.1,-1.8 4.1,-4.1 0,-2.3 -1.9,-4 -4.2,-4 z M 19.9,2 c 1.8,0 3.3,1.2 3.7,2.9 H 16.1 C 16.6,3.2 18.1,2 19.9,2 Z m 13.4,9 H 6.5 C 5.4,11 4.4,10.1 4.4,8.9 4.4,7.8 5.3,6.8 6.5,6.8 h 26.9 c 1.1,0 2.1,0.9 2.1,2.1 -0.1,1.2 -1,2.1 -2.2,2.1 z"
       id="path1423"
       style="fill:#20b2aa;fill-opacity:1"
       inkscape:connector-curvature="0" /></g><g
     id="g1429"
     style="fill:#20b2aa;fill-opacity:1"
     transform="matrix(0.55,0,0,0.55,-1.32,0)"><path
       d="m 12.9,35.1 c -0.6,0 -1,-0.4 -1,-1 V 17.4 c 0,-0.6 0.4,-1 1,-1 0.6,0 1,0.4 1,1 v 16.7 c 0,0.5 -0.5,1 -1,1 z"
       id="path1427"
       style="fill:#20b2aa;fill-opacity:1"
       inkscape:connector-curvature="0" /></g><g
     id="g1433"
     style="fill:#20b2aa;fill-opacity:1"
     transform="matrix(0.55,0,0,0.55,-1.32,0)"><path
       d="m 26.9,35.1 c -0.6,0 -1,-0.4 -1,-1 V 17.4 c 0,-0.6 0.4,-1 1,-1 0.6,0 1,0.4 1,1 v 16.7 c 0,0.5 -0.5,1 -1,1 z"
       id="path1431"
       style="fill:#20b2aa;fill-opacity:1"
       inkscape:connector-curvature="0" /></g><g
     id="g1437"
     style="fill:#20b2aa;fill-opacity:1"
     transform="matrix(0.55,0,0,0.55,-1.32,0)"><path
       d="m 19.9,35.1 c -0.6,0 -1,-0.4 -1,-1 V 17.4 c 0,-0.6 0.4,-1 1,-1 0.6,0 1,0.4 1,1 v 16.7 c 0,0.5 -0.5,1 -1,1 z"
       id="path1435"
       style="fill:#20b2aa;fill-opacity:1"
       inkscape:connector-curvature="0" /></g></svg>