<?xml version="1.0" encoding="UTF-8" standalone="no"?>
<svg
   xmlns:dc="http://purl.org/dc/elements/1.1/"
   xmlns:cc="http://creativecommons.org/ns#"
   xmlns:rdf="http://www.w3.org/1999/02/22-rdf-syntax-ns#"
   xmlns:svg="http://www.w3.org/2000/svg"
   xmlns="http://www.w3.org/2000/svg"
   xmlns:sodipodi="http://sodipodi.sourceforge.net/DTD/sodipodi-0.dtd"
   xmlns:inkscape="http://www.inkscape.org/namespaces/inkscape"
   version="1.1"
   viewBox="0 0 22 14.657248"
   xml:space="preserve"
   id="svg835"
   sodipodi:docname="save.svg"
   width="22"
   height="14.657248"
   inkscape:version="0.92.3 (2405546, 2018-03-11)"><metadata
     id="metadata841"><rdf:RDF><cc:Work
         rdf:about=""><dc:format>image/svg+xml</dc:format><dc:type
           rdf:resource="http://purl.org/dc/dcmitype/StillImage" /><dc:title></dc:title></cc:Work></rdf:RDF></metadata><defs
     id="defs839" /><sodipodi:namedview
     pagecolor="#ffffff"
     bordercolor="#666666"
     borderopacity="1"
     objecttolerance="10"
     gridtolerance="10"
     guidetolerance="10"
     inkscape:pageopacity="0"
     inkscape:pageshadow="2"
     inkscape:window-width="1920"
     inkscape:window-height="1001"
     id="namedview837"
     showgrid="false"
     inkscape:zoom="16.833333"
     inkscape:cx="11.72557"
     inkscape:cy="7.8120476"
     inkscape:window-x="-9"
     inkscape:window-y="-9"
     inkscape:window-maximized="1"
     inkscape:current-layer="svg835" /><g
     id="Padding__x26__Artboard"
     transform="translate(-12.27443,-17.1548)" /><g
     id="Icons"
     style="fill:#20b2aa;fill-opacity:1"
     transform="matrix(0.93811911,0,0,0.93811911,-11.514877,-15.186245)"><g
       id="g832"
       style="fill:#20b2aa;fill-opacity:1"><path
         d="m 35.33643,22.23878 -9.38281,-5.92041 c -0.25293,-0.1626 -0.57324,-0.17383 -0.83691,-0.02979 -0.26465,0.14453 -0.4292,0.42285 -0.4292,0.72656 v 3.35944 c -0.60999,-0.0062 -1.21979,-0.01923 -1.80762,-0.05768 -1.6001,-0.10596 -3.29102,-0.16553 -4.84375,0.32471 -1.08789,0.34375 -2.11816,0.92822 -2.979,1.69043 -0.85547,0.7583 -1.55908,1.7041 -2.03369,2.73535 -0.48975,1.06348 -0.74902,2.24707 -0.74902,3.42236 v 2.97217 c 0,0.18018 0.13721,0.33105 0.31641,0.34863 0.01172,9.8e-4 0.02295,0.0015 0.03418,0.0015 0.16553,0 0.31104,-0.11768 0.34326,-0.2832 0.06982,-0.36035 0.16699,-0.71729 0.28906,-1.06152 0.68066,-1.92383 2.16846,-3.52734 4.08154,-4.3999 1.45166,-0.66064 3.46191,-0.62109 5.40234,-0.58105 0.64648,0.01318 1.31104,0.02686 1.94629,0.01221 v 3.37109 c 0,0.30127 0.16602,0.57861 0.43262,0.72461 0.11792,0.06439 0.24695,0.09308 0.37573,0.09613 0.0066,1.8e-4 0.0127,0.0049 0.01929,0.0049 0.0042,0 0.0082,-0.0017 0.01239,-0.0018 0.05066,-7.9e-4 0.09998,-0.01099 0.14954,-0.02118 0.02313,-0.0048 0.04675,-0.0049 0.06946,-0.0116 0.07141,-0.02124 0.14044,-0.05164 0.20465,-0.0929 l 9.38477,-5.93262 c 0.24414,-0.15381 0.38965,-0.41504 0.38965,-0.69873 -2e-5,-0.28319 -0.14553,-0.54442 -0.38918,-0.69774 z m -14.03418,0.06836 c -0.61133,0.01318 -1.15137,0.06543 -1.6499,0.15918 -0.02197,0.0044 -0.04395,0.0064 -0.06543,0.0064 -0.16504,0 -0.31201,-0.11719 -0.34326,-0.28516 -0.03613,-0.19043 0.08887,-0.37305 0.27881,-0.40869 0.53711,-0.10107 1.11426,-0.15723 1.76416,-0.17188 0.0029,0 0.0054,0 0.0078,0 0.18994,0 0.3457,0.15186 0.3501,0.34229 0.0039,0.19336 -0.14893,0.35352 -0.34229,0.35791 z m -5.31055,1.75733 c -0.07666,0 -0.15332,-0.0249 -0.21777,-0.07617 -0.15137,-0.12061 -0.17627,-0.34082 -0.05615,-0.4917 0.60547,-0.76074 1.78125,-1.30371 2.45752,-1.31592 0.0024,0 0.0044,0 0.0064,0 0.19043,0 0.34668,0.15283 0.3501,0.34375 0.0034,0.19336 -0.15039,0.35303 -0.34375,0.35645 -0.50928,0.0088 -1.45996,0.47021 -1.92236,1.05127 -0.06935,0.08691 -0.1714,0.13232 -0.27394,0.13232 z"
         style="fill:#20b2aa;fill-opacity:1"
         id="path830"
         inkscape:connector-curvature="0" /></g></g></svg>